<mxfile host="app.diagrams.net" modified="2021-09-11T19:38:06.889Z" agent="5.0 (Windows NT 10.0; Win64; x64) AppleWebKit/537.36 (KHTML, like Gecko) Chrome/92.0.4515.159 Safari/537.36" etag="heVJfWNR-LGn4HeKz5ut" version="14.8.5" type="github">
  <diagram id="kgpKYQtTHZ0yAKxKKP6v" name="Page-1">
    <mxGraphModel dx="1697" dy="949" grid="1" gridSize="10" guides="1" tooltips="1" connect="1" arrows="1" fold="1" page="1" pageScale="1" pageWidth="850" pageHeight="1100" math="0" shadow="0">
      <root>
        <mxCell id="0" />
        <mxCell id="1" parent="0" />
        <mxCell id="3nuBFxr9cyL0pnOWT2aG-1" value="T1 Blood Altar" style="shape=umlLifeline;perimeter=lifelinePerimeter;container=1;collapsible=0;recursiveResize=0;rounded=0;shadow=0;strokeWidth=1;size=40;" parent="1" vertex="1">
          <mxGeometry x="320" y="40" width="80" height="40" as="geometry" />
        </mxCell>
        <mxCell id="AL4MJqAyBT561Gl4Sr2e-3" style="edgeStyle=orthogonalEdgeStyle;rounded=0;orthogonalLoop=1;jettySize=auto;html=1;entryX=0.005;entryY=0.518;entryDx=0;entryDy=0;entryPerimeter=0;" parent="1" source="AL4MJqAyBT561Gl4Sr2e-2" target="3nuBFxr9cyL0pnOWT2aG-1" edge="1">
          <mxGeometry relative="1" as="geometry">
            <mxPoint x="370" y="80" as="targetPoint" />
          </mxGeometry>
        </mxCell>
        <mxCell id="AL4MJqAyBT561Gl4Sr2e-2" value="Gold Access&amp;nbsp;" style="rounded=1;whiteSpace=wrap;html=1;glass=0;" parent="1" vertex="1">
          <mxGeometry x="200" y="40" width="80" height="40" as="geometry" />
        </mxCell>
        <mxCell id="AL4MJqAyBT561Gl4Sr2e-46" style="edgeStyle=orthogonalEdgeStyle;rounded=0;orthogonalLoop=1;jettySize=auto;html=1;exitX=0.5;exitY=1;exitDx=0;exitDy=0;entryX=0.5;entryY=0;entryDx=0;entryDy=0;" parent="1" source="AL4MJqAyBT561Gl4Sr2e-4" target="AL4MJqAyBT561Gl4Sr2e-42" edge="1">
          <mxGeometry relative="1" as="geometry" />
        </mxCell>
        <mxCell id="AL4MJqAyBT561Gl4Sr2e-4" value="Soul Snare" style="rounded=1;whiteSpace=wrap;html=1;" parent="1" vertex="1">
          <mxGeometry x="720" y="40" width="80" height="40" as="geometry" />
        </mxCell>
        <mxCell id="AL4MJqAyBT561Gl4Sr2e-5" value="" style="endArrow=classic;html=1;entryX=0;entryY=0.5;entryDx=0;entryDy=0;exitX=1.001;exitY=0.504;exitDx=0;exitDy=0;exitPerimeter=0;" parent="1" source="3nuBFxr9cyL0pnOWT2aG-1" target="AL4MJqAyBT561Gl4Sr2e-4" edge="1">
          <mxGeometry width="50" height="50" relative="1" as="geometry">
            <mxPoint x="480" y="110" as="sourcePoint" />
            <mxPoint x="450" y="270" as="targetPoint" />
            <Array as="points">
              <mxPoint x="430" y="60" />
            </Array>
          </mxGeometry>
        </mxCell>
        <mxCell id="AL4MJqAyBT561Gl4Sr2e-6" value="String or Iron" style="text;html=1;strokeColor=none;fillColor=none;align=center;verticalAlign=middle;whiteSpace=wrap;rounded=0;" parent="1" vertex="1">
          <mxGeometry x="540" y="50" width="40" height="20" as="geometry" />
        </mxCell>
        <mxCell id="AL4MJqAyBT561Gl4Sr2e-45" style="edgeStyle=orthogonalEdgeStyle;rounded=0;orthogonalLoop=1;jettySize=auto;html=1;exitX=1;exitY=0.5;exitDx=0;exitDy=0;entryX=0;entryY=0.5;entryDx=0;entryDy=0;" parent="1" source="AL4MJqAyBT561Gl4Sr2e-9" target="AL4MJqAyBT561Gl4Sr2e-43" edge="1">
          <mxGeometry relative="1" as="geometry" />
        </mxCell>
        <mxCell id="AL4MJqAyBT561Gl4Sr2e-48" style="edgeStyle=orthogonalEdgeStyle;rounded=0;orthogonalLoop=1;jettySize=auto;html=1;exitX=0.5;exitY=1;exitDx=0;exitDy=0;entryX=0.5;entryY=0;entryDx=0;entryDy=0;" parent="1" source="AL4MJqAyBT561Gl4Sr2e-9" target="AL4MJqAyBT561Gl4Sr2e-47" edge="1">
          <mxGeometry relative="1" as="geometry" />
        </mxCell>
        <mxCell id="AL4MJqAyBT561Gl4Sr2e-9" value="Hellfire Forge" style="rounded=0;whiteSpace=wrap;html=1;glass=0;" parent="1" vertex="1">
          <mxGeometry x="600" y="160" width="80" height="40" as="geometry" />
        </mxCell>
        <mxCell id="AL4MJqAyBT561Gl4Sr2e-34" style="edgeStyle=orthogonalEdgeStyle;rounded=0;orthogonalLoop=1;jettySize=auto;html=1;exitX=0.5;exitY=1;exitDx=0;exitDy=0;entryX=0.5;entryY=0;entryDx=0;entryDy=0;" parent="1" source="AL4MJqAyBT561Gl4Sr2e-12" target="AL4MJqAyBT561Gl4Sr2e-33" edge="1">
          <mxGeometry relative="1" as="geometry" />
        </mxCell>
        <mxCell id="AL4MJqAyBT561Gl4Sr2e-12" value="Alchemy Table" style="rounded=0;whiteSpace=wrap;html=1;glass=0;" parent="1" vertex="1">
          <mxGeometry x="120" y="160" width="80" height="40" as="geometry" />
        </mxCell>
        <mxCell id="AL4MJqAyBT561Gl4Sr2e-37" style="edgeStyle=orthogonalEdgeStyle;rounded=0;orthogonalLoop=1;jettySize=auto;html=1;exitX=0.5;exitY=1;exitDx=0;exitDy=0;entryX=0.5;entryY=0;entryDx=0;entryDy=0;" parent="1" source="AL4MJqAyBT561Gl4Sr2e-13" target="AL4MJqAyBT561Gl4Sr2e-35" edge="1">
          <mxGeometry relative="1" as="geometry" />
        </mxCell>
        <mxCell id="AL4MJqAyBT561Gl4Sr2e-13" value="Arcane Ash" style="rounded=1;whiteSpace=wrap;html=1;glass=0;" parent="1" vertex="1">
          <mxGeometry y="160" width="80" height="40" as="geometry" />
        </mxCell>
        <mxCell id="AL4MJqAyBT561Gl4Sr2e-14" value="" style="endArrow=classic;html=1;exitX=0;exitY=0.5;exitDx=0;exitDy=0;entryX=1;entryY=0.5;entryDx=0;entryDy=0;" parent="1" source="AL4MJqAyBT561Gl4Sr2e-12" target="AL4MJqAyBT561Gl4Sr2e-13" edge="1">
          <mxGeometry width="50" height="50" relative="1" as="geometry">
            <mxPoint x="420" y="160" as="sourcePoint" />
            <mxPoint x="470" y="110" as="targetPoint" />
          </mxGeometry>
        </mxCell>
        <mxCell id="AL4MJqAyBT561Gl4Sr2e-15" value="Weak Blood orb" style="rounded=1;whiteSpace=wrap;html=1;glass=0;" parent="1" vertex="1">
          <mxGeometry x="240" y="160" width="80" height="40" as="geometry" />
        </mxCell>
        <mxCell id="AL4MJqAyBT561Gl4Sr2e-18" value="" style="endArrow=classic;html=1;exitX=0;exitY=0.5;exitDx=0;exitDy=0;entryX=1;entryY=0.5;entryDx=0;entryDy=0;" parent="1" source="AL4MJqAyBT561Gl4Sr2e-15" target="AL4MJqAyBT561Gl4Sr2e-12" edge="1">
          <mxGeometry width="50" height="50" relative="1" as="geometry">
            <mxPoint x="420" y="160" as="sourcePoint" />
            <mxPoint x="470" y="110" as="targetPoint" />
          </mxGeometry>
        </mxCell>
        <mxCell id="AL4MJqAyBT561Gl4Sr2e-39" style="edgeStyle=orthogonalEdgeStyle;rounded=0;orthogonalLoop=1;jettySize=auto;html=1;exitX=0.5;exitY=1;exitDx=0;exitDy=0;entryX=0.5;entryY=0;entryDx=0;entryDy=0;" parent="1" source="AL4MJqAyBT561Gl4Sr2e-19" target="AL4MJqAyBT561Gl4Sr2e-38" edge="1">
          <mxGeometry relative="1" as="geometry" />
        </mxCell>
        <mxCell id="AL4MJqAyBT561Gl4Sr2e-19" value="Blank Slate" style="rounded=1;whiteSpace=wrap;html=1;glass=0;" parent="1" vertex="1">
          <mxGeometry x="385" y="160" width="80" height="40" as="geometry" />
        </mxCell>
        <mxCell id="AL4MJqAyBT561Gl4Sr2e-26" value="" style="endArrow=classic;html=1;entryX=0.5;entryY=0;entryDx=0;entryDy=0;exitX=0.501;exitY=0.997;exitDx=0;exitDy=0;exitPerimeter=0;" parent="1" source="3nuBFxr9cyL0pnOWT2aG-1" target="AL4MJqAyBT561Gl4Sr2e-19" edge="1">
          <mxGeometry width="50" height="50" relative="1" as="geometry">
            <mxPoint x="348" y="160" as="sourcePoint" />
            <mxPoint x="430" y="90" as="targetPoint" />
            <Array as="points">
              <mxPoint x="360" y="120" />
              <mxPoint x="400" y="120" />
              <mxPoint x="425" y="120" />
            </Array>
          </mxGeometry>
        </mxCell>
        <mxCell id="AL4MJqAyBT561Gl4Sr2e-54" value="Smooth Stone" style="edgeLabel;html=1;align=center;verticalAlign=bottom;resizable=0;points=[];" parent="AL4MJqAyBT561Gl4Sr2e-26" vertex="1" connectable="0">
          <mxGeometry x="-0.0617" y="-1" relative="1" as="geometry">
            <mxPoint x="12.06" y="-1" as="offset" />
          </mxGeometry>
        </mxCell>
        <mxCell id="AL4MJqAyBT561Gl4Sr2e-28" value="" style="endArrow=classic;html=1;exitX=0.498;exitY=0.997;exitDx=0;exitDy=0;exitPerimeter=0;entryX=0.5;entryY=0;entryDx=0;entryDy=0;" parent="1" source="3nuBFxr9cyL0pnOWT2aG-1" target="AL4MJqAyBT561Gl4Sr2e-15" edge="1">
          <mxGeometry width="50" height="50" relative="1" as="geometry">
            <mxPoint x="420" y="160" as="sourcePoint" />
            <mxPoint x="470" y="110" as="targetPoint" />
            <Array as="points">
              <mxPoint x="360" y="120" />
              <mxPoint x="280" y="120" />
            </Array>
          </mxGeometry>
        </mxCell>
        <mxCell id="AL4MJqAyBT561Gl4Sr2e-53" value="Diamond" style="edgeLabel;html=1;align=center;verticalAlign=middle;resizable=0;points=[];" parent="AL4MJqAyBT561Gl4Sr2e-28" vertex="1" connectable="0">
          <mxGeometry x="0.1683" relative="1" as="geometry">
            <mxPoint x="13.67" as="offset" />
          </mxGeometry>
        </mxCell>
        <mxCell id="AL4MJqAyBT561Gl4Sr2e-31" value="" style="endArrow=classic;html=1;exitX=1;exitY=0.5;exitDx=0;exitDy=0;entryX=0;entryY=0.5;entryDx=0;entryDy=0;" parent="1" source="AL4MJqAyBT561Gl4Sr2e-19" target="AL4MJqAyBT561Gl4Sr2e-9" edge="1">
          <mxGeometry width="50" height="50" relative="1" as="geometry">
            <mxPoint x="420" y="160" as="sourcePoint" />
            <mxPoint x="470" y="110" as="targetPoint" />
          </mxGeometry>
        </mxCell>
        <mxCell id="AL4MJqAyBT561Gl4Sr2e-36" style="edgeStyle=orthogonalEdgeStyle;rounded=0;orthogonalLoop=1;jettySize=auto;html=1;exitX=0;exitY=0.5;exitDx=0;exitDy=0;entryX=1;entryY=0.5;entryDx=0;entryDy=0;" parent="1" source="AL4MJqAyBT561Gl4Sr2e-33" target="AL4MJqAyBT561Gl4Sr2e-35" edge="1">
          <mxGeometry relative="1" as="geometry" />
        </mxCell>
        <mxCell id="AL4MJqAyBT561Gl4Sr2e-33" value="Reagents (orb dependent)" style="rounded=1;whiteSpace=wrap;html=1;glass=0;" parent="1" vertex="1">
          <mxGeometry x="120" y="240" width="80" height="40" as="geometry" />
        </mxCell>
        <mxCell id="AL4MJqAyBT561Gl4Sr2e-35" value="Sigils" style="rounded=1;whiteSpace=wrap;html=1;glass=0;" parent="1" vertex="1">
          <mxGeometry y="240" width="80" height="40" as="geometry" />
        </mxCell>
        <mxCell id="AL4MJqAyBT561Gl4Sr2e-41" style="edgeStyle=orthogonalEdgeStyle;rounded=0;orthogonalLoop=1;jettySize=auto;html=1;exitX=0.5;exitY=1;exitDx=0;exitDy=0;entryX=0.5;entryY=0;entryDx=0;entryDy=0;" parent="1" source="AL4MJqAyBT561Gl4Sr2e-38" target="AL4MJqAyBT561Gl4Sr2e-40" edge="1">
          <mxGeometry relative="1" as="geometry" />
        </mxCell>
        <mxCell id="AL4MJqAyBT561Gl4Sr2e-38" value="Blank Rune" style="rounded=1;whiteSpace=wrap;html=1;glass=0;" parent="1" vertex="1">
          <mxGeometry x="385" y="240" width="80" height="40" as="geometry" />
        </mxCell>
        <mxCell id="AL4MJqAyBT561Gl4Sr2e-55" style="edgeStyle=orthogonalEdgeStyle;rounded=0;orthogonalLoop=1;jettySize=auto;html=1;exitX=0.5;exitY=1;exitDx=0;exitDy=0;entryX=0.5;entryY=0;entryDx=0;entryDy=0;" parent="1" source="AL4MJqAyBT561Gl4Sr2e-40" target="AL4MJqAyBT561Gl4Sr2e-50" edge="1">
          <mxGeometry relative="1" as="geometry" />
        </mxCell>
        <mxCell id="AL4MJqAyBT561Gl4Sr2e-40" value="T2 Blood Altar" style="rounded=0;whiteSpace=wrap;html=1;glass=0;" parent="1" vertex="1">
          <mxGeometry x="480" y="400" width="80" height="40" as="geometry" />
        </mxCell>
        <mxCell id="AL4MJqAyBT561Gl4Sr2e-44" style="edgeStyle=orthogonalEdgeStyle;rounded=0;orthogonalLoop=1;jettySize=auto;html=1;exitX=0.5;exitY=1;exitDx=0;exitDy=0;entryX=0.5;entryY=0;entryDx=0;entryDy=0;" parent="1" source="AL4MJqAyBT561Gl4Sr2e-42" target="AL4MJqAyBT561Gl4Sr2e-43" edge="1">
          <mxGeometry relative="1" as="geometry" />
        </mxCell>
        <mxCell id="AL4MJqAyBT561Gl4Sr2e-42" value="Will" style="rounded=1;whiteSpace=wrap;html=1;glass=0;" parent="1" vertex="1">
          <mxGeometry x="720" y="100" width="80" height="40" as="geometry" />
        </mxCell>
        <mxCell id="AL4MJqAyBT561Gl4Sr2e-65" style="edgeStyle=orthogonalEdgeStyle;rounded=0;orthogonalLoop=1;jettySize=auto;html=1;exitX=0.5;exitY=1;exitDx=0;exitDy=0;entryX=0.5;entryY=0;entryDx=0;entryDy=0;" parent="1" source="AL4MJqAyBT561Gl4Sr2e-43" target="AL4MJqAyBT561Gl4Sr2e-64" edge="1">
          <mxGeometry relative="1" as="geometry" />
        </mxCell>
        <mxCell id="AL4MJqAyBT561Gl4Sr2e-43" value="Petty Gem" style="rounded=1;whiteSpace=wrap;html=1;glass=0;" parent="1" vertex="1">
          <mxGeometry x="720" y="160" width="80" height="40" as="geometry" />
        </mxCell>
        <mxCell id="AL4MJqAyBT561Gl4Sr2e-47" value="Sentient Sword &amp;amp; Tools" style="rounded=1;whiteSpace=wrap;html=1;glass=0;" parent="1" vertex="1">
          <mxGeometry x="600" y="240" width="80" height="40" as="geometry" />
        </mxCell>
        <mxCell id="AL4MJqAyBT561Gl4Sr2e-51" style="edgeStyle=orthogonalEdgeStyle;rounded=0;orthogonalLoop=1;jettySize=auto;html=1;exitX=0.5;exitY=1;exitDx=0;exitDy=0;entryX=0;entryY=0.5;entryDx=0;entryDy=0;" parent="1" source="AL4MJqAyBT561Gl4Sr2e-49" target="AL4MJqAyBT561Gl4Sr2e-50" edge="1">
          <mxGeometry relative="1" as="geometry">
            <Array as="points">
              <mxPoint x="40" y="700" />
            </Array>
          </mxGeometry>
        </mxCell>
        <mxCell id="AL4MJqAyBT561Gl4Sr2e-52" value="Glowstone" style="edgeLabel;html=1;align=center;verticalAlign=middle;resizable=0;points=[];" parent="AL4MJqAyBT561Gl4Sr2e-51" vertex="1" connectable="0">
          <mxGeometry x="-0.106" y="1" relative="1" as="geometry">
            <mxPoint x="59" y="88.33" as="offset" />
          </mxGeometry>
        </mxCell>
        <mxCell id="AL4MJqAyBT561Gl4Sr2e-58" style="edgeStyle=orthogonalEdgeStyle;rounded=0;orthogonalLoop=1;jettySize=auto;html=1;exitX=1;exitY=0.5;exitDx=0;exitDy=0;entryX=0;entryY=0.5;entryDx=0;entryDy=0;" parent="1" source="AL4MJqAyBT561Gl4Sr2e-49" target="AL4MJqAyBT561Gl4Sr2e-56" edge="1">
          <mxGeometry relative="1" as="geometry" />
        </mxCell>
        <mxCell id="AL4MJqAyBT561Gl4Sr2e-59" value="Nether Wart" style="edgeLabel;html=1;align=center;verticalAlign=middle;resizable=0;points=[];" parent="AL4MJqAyBT561Gl4Sr2e-58" vertex="1" connectable="0">
          <mxGeometry x="-0.1111" y="2" relative="1" as="geometry">
            <mxPoint y="-8" as="offset" />
          </mxGeometry>
        </mxCell>
        <mxCell id="AL4MJqAyBT561Gl4Sr2e-49" value="Nether Access" style="ellipse;whiteSpace=wrap;html=1;rounded=1;glass=0;" parent="1" vertex="1">
          <mxGeometry y="320" width="80" height="40" as="geometry" />
        </mxCell>
        <mxCell id="AL4MJqAyBT561Gl4Sr2e-71" style="edgeStyle=orthogonalEdgeStyle;rounded=0;orthogonalLoop=1;jettySize=auto;html=1;exitX=0.5;exitY=1;exitDx=0;exitDy=0;entryX=0.5;entryY=0;entryDx=0;entryDy=0;" parent="1" source="AL4MJqAyBT561Gl4Sr2e-50" target="AL4MJqAyBT561Gl4Sr2e-70" edge="1">
          <mxGeometry relative="1" as="geometry" />
        </mxCell>
        <mxCell id="AL4MJqAyBT561Gl4Sr2e-73" style="edgeStyle=orthogonalEdgeStyle;rounded=0;orthogonalLoop=1;jettySize=auto;html=1;exitX=0.5;exitY=1;exitDx=0;exitDy=0;entryX=0.5;entryY=0;entryDx=0;entryDy=0;" parent="1" source="AL4MJqAyBT561Gl4Sr2e-50" target="AL4MJqAyBT561Gl4Sr2e-72" edge="1">
          <mxGeometry relative="1" as="geometry" />
        </mxCell>
        <mxCell id="AL4MJqAyBT561Gl4Sr2e-84" style="edgeStyle=orthogonalEdgeStyle;rounded=0;orthogonalLoop=1;jettySize=auto;html=1;exitX=0.5;exitY=1;exitDx=0;exitDy=0;entryX=0.5;entryY=0;entryDx=0;entryDy=0;" parent="1" source="AL4MJqAyBT561Gl4Sr2e-50" target="AL4MJqAyBT561Gl4Sr2e-83" edge="1">
          <mxGeometry relative="1" as="geometry">
            <Array as="points">
              <mxPoint x="280" y="820" />
              <mxPoint x="80" y="820" />
            </Array>
          </mxGeometry>
        </mxCell>
        <mxCell id="AL4MJqAyBT561Gl4Sr2e-50" value="T3 Blood Altar" style="rounded=0;whiteSpace=wrap;html=1;glass=0;" parent="1" vertex="1">
          <mxGeometry x="240" y="680" width="80" height="40" as="geometry" />
        </mxCell>
        <mxCell id="AL4MJqAyBT561Gl4Sr2e-56" value="Lvl 1 Anointments" style="rounded=1;whiteSpace=wrap;html=1;glass=0;" parent="1" vertex="1">
          <mxGeometry x="200" y="320" width="80" height="40" as="geometry" />
        </mxCell>
        <mxCell id="AL4MJqAyBT561Gl4Sr2e-57" value="" style="endArrow=classic;html=1;exitX=0.5;exitY=1;exitDx=0;exitDy=0;entryX=0.5;entryY=0;entryDx=0;entryDy=0;" parent="1" source="AL4MJqAyBT561Gl4Sr2e-12" target="AL4MJqAyBT561Gl4Sr2e-56" edge="1">
          <mxGeometry width="50" height="50" relative="1" as="geometry">
            <mxPoint x="470" y="470" as="sourcePoint" />
            <mxPoint x="520" y="420" as="targetPoint" />
            <Array as="points">
              <mxPoint x="160" y="220" />
              <mxPoint x="240" y="220" />
            </Array>
          </mxGeometry>
        </mxCell>
        <mxCell id="AL4MJqAyBT561Gl4Sr2e-60" value="Alchemy Flask" style="rounded=1;whiteSpace=wrap;html=1;glass=0;" parent="1" vertex="1">
          <mxGeometry x="280" y="440" width="80" height="40" as="geometry" />
        </mxCell>
        <mxCell id="AL4MJqAyBT561Gl4Sr2e-61" value="" style="endArrow=classic;html=1;exitX=0.5;exitY=1;exitDx=0;exitDy=0;entryX=0.5;entryY=0;entryDx=0;entryDy=0;" parent="1" source="AL4MJqAyBT561Gl4Sr2e-12" target="AL4MJqAyBT561Gl4Sr2e-60" edge="1">
          <mxGeometry width="50" height="50" relative="1" as="geometry">
            <mxPoint x="470" y="380" as="sourcePoint" />
            <mxPoint x="520" y="330" as="targetPoint" />
            <Array as="points">
              <mxPoint x="160" y="220" />
              <mxPoint x="320" y="220" />
            </Array>
          </mxGeometry>
        </mxCell>
        <mxCell id="AL4MJqAyBT561Gl4Sr2e-62" value="" style="endArrow=classic;html=1;exitX=0;exitY=0.5;exitDx=0;exitDy=0;entryX=0.5;entryY=0;entryDx=0;entryDy=0;" parent="1" source="AL4MJqAyBT561Gl4Sr2e-40" target="AL4MJqAyBT561Gl4Sr2e-60" edge="1">
          <mxGeometry width="50" height="50" relative="1" as="geometry">
            <mxPoint x="470" y="380" as="sourcePoint" />
            <mxPoint x="520" y="330" as="targetPoint" />
            <Array as="points">
              <mxPoint x="320" y="420" />
            </Array>
          </mxGeometry>
        </mxCell>
        <mxCell id="AL4MJqAyBT561Gl4Sr2e-63" value="Glass Bottle" style="edgeLabel;html=1;align=center;verticalAlign=middle;resizable=0;points=[];" parent="AL4MJqAyBT561Gl4Sr2e-62" vertex="1" connectable="0">
          <mxGeometry x="-0.3623" y="2" relative="1" as="geometry">
            <mxPoint x="-9.17" y="-2" as="offset" />
          </mxGeometry>
        </mxCell>
        <mxCell id="AL4MJqAyBT561Gl4Sr2e-67" style="edgeStyle=orthogonalEdgeStyle;rounded=0;orthogonalLoop=1;jettySize=auto;html=1;exitX=0.5;exitY=1;exitDx=0;exitDy=0;entryX=0.5;entryY=0;entryDx=0;entryDy=0;" parent="1" source="AL4MJqAyBT561Gl4Sr2e-64" target="AL4MJqAyBT561Gl4Sr2e-66" edge="1">
          <mxGeometry relative="1" as="geometry" />
        </mxCell>
        <mxCell id="AL4MJqAyBT561Gl4Sr2e-64" value="Lesser Gem" style="rounded=1;whiteSpace=wrap;html=1;glass=0;" parent="1" vertex="1">
          <mxGeometry x="720" y="400" width="80" height="40" as="geometry" />
        </mxCell>
        <mxCell id="AL4MJqAyBT561Gl4Sr2e-75" style="edgeStyle=orthogonalEdgeStyle;rounded=0;orthogonalLoop=1;jettySize=auto;html=1;exitX=0.5;exitY=1;exitDx=0;exitDy=0;entryX=0.5;entryY=0;entryDx=0;entryDy=0;" parent="1" source="AL4MJqAyBT561Gl4Sr2e-66" target="AL4MJqAyBT561Gl4Sr2e-74" edge="1">
          <mxGeometry relative="1" as="geometry" />
        </mxCell>
        <mxCell id="AL4MJqAyBT561Gl4Sr2e-66" value="Common Gem" style="rounded=1;whiteSpace=wrap;html=1;glass=0;" parent="1" vertex="1">
          <mxGeometry x="720" y="680" width="80" height="40" as="geometry" />
        </mxCell>
        <mxCell id="AL4MJqAyBT561Gl4Sr2e-68" value="" style="endArrow=classic;html=1;exitX=1;exitY=0.5;exitDx=0;exitDy=0;entryX=0;entryY=0.5;entryDx=0;entryDy=0;" parent="1" source="AL4MJqAyBT561Gl4Sr2e-49" target="AL4MJqAyBT561Gl4Sr2e-60" edge="1">
          <mxGeometry width="50" height="50" relative="1" as="geometry">
            <mxPoint x="470" y="460" as="sourcePoint" />
            <mxPoint x="520" y="410" as="targetPoint" />
            <Array as="points">
              <mxPoint x="140" y="340" />
              <mxPoint x="140" y="400" />
              <mxPoint x="140" y="460" />
            </Array>
          </mxGeometry>
        </mxCell>
        <mxCell id="AL4MJqAyBT561Gl4Sr2e-79" style="edgeStyle=orthogonalEdgeStyle;rounded=0;orthogonalLoop=1;jettySize=auto;html=1;exitX=0.5;exitY=1;exitDx=0;exitDy=0;entryX=0.5;entryY=0;entryDx=0;entryDy=0;" parent="1" source="AL4MJqAyBT561Gl4Sr2e-70" target="AL4MJqAyBT561Gl4Sr2e-77" edge="1">
          <mxGeometry relative="1" as="geometry" />
        </mxCell>
        <mxCell id="AL4MJqAyBT561Gl4Sr2e-70" value="Rituals" style="rounded=0;whiteSpace=wrap;html=1;glass=0;" parent="1" vertex="1">
          <mxGeometry x="320" y="760" width="80" height="40" as="geometry" />
        </mxCell>
        <mxCell id="AL4MJqAyBT561Gl4Sr2e-72" value="Living Armo(u)r" style="rounded=0;whiteSpace=wrap;html=1;glass=0;" parent="1" vertex="1">
          <mxGeometry x="160" y="760" width="80" height="40" as="geometry" />
        </mxCell>
        <mxCell id="AL4MJqAyBT561Gl4Sr2e-78" style="edgeStyle=orthogonalEdgeStyle;rounded=0;orthogonalLoop=1;jettySize=auto;html=1;exitX=0;exitY=0.5;exitDx=0;exitDy=0;entryX=1;entryY=0.5;entryDx=0;entryDy=0;" parent="1" source="AL4MJqAyBT561Gl4Sr2e-74" target="AL4MJqAyBT561Gl4Sr2e-76" edge="1">
          <mxGeometry relative="1" as="geometry" />
        </mxCell>
        <mxCell id="AL4MJqAyBT561Gl4Sr2e-74" value="Demon Crystallizer &amp;amp; Crucible" style="rounded=1;whiteSpace=wrap;html=1;glass=0;" parent="1" vertex="1">
          <mxGeometry x="720" y="760" width="80" height="40" as="geometry" />
        </mxCell>
        <mxCell id="AL4MJqAyBT561Gl4Sr2e-80" style="edgeStyle=orthogonalEdgeStyle;rounded=0;orthogonalLoop=1;jettySize=auto;html=1;exitX=0.5;exitY=1;exitDx=0;exitDy=0;entryX=1;entryY=0.5;entryDx=0;entryDy=0;" parent="1" source="AL4MJqAyBT561Gl4Sr2e-76" target="AL4MJqAyBT561Gl4Sr2e-77" edge="1">
          <mxGeometry relative="1" as="geometry" />
        </mxCell>
        <mxCell id="AL4MJqAyBT561Gl4Sr2e-82" style="edgeStyle=orthogonalEdgeStyle;rounded=0;orthogonalLoop=1;jettySize=auto;html=1;exitX=0.5;exitY=1;exitDx=0;exitDy=0;entryX=0.5;entryY=0;entryDx=0;entryDy=0;" parent="1" source="AL4MJqAyBT561Gl4Sr2e-76" target="AL4MJqAyBT561Gl4Sr2e-81" edge="1">
          <mxGeometry relative="1" as="geometry">
            <Array as="points">
              <mxPoint x="600" y="860" />
              <mxPoint x="790" y="860" />
            </Array>
          </mxGeometry>
        </mxCell>
        <mxCell id="AL4MJqAyBT561Gl4Sr2e-76" value="Crystallized Will" style="rounded=1;whiteSpace=wrap;html=1;glass=0;" parent="1" vertex="1">
          <mxGeometry x="560" y="760" width="80" height="40" as="geometry" />
        </mxCell>
        <mxCell id="AL4MJqAyBT561Gl4Sr2e-77" value="Augmented Rituals" style="rounded=0;whiteSpace=wrap;html=1;glass=0;" parent="1" vertex="1">
          <mxGeometry x="440" y="840" width="80" height="40" as="geometry" />
        </mxCell>
        <mxCell id="AL4MJqAyBT561Gl4Sr2e-81" value="Greater Gem" style="rounded=1;whiteSpace=wrap;html=1;glass=0;" parent="1" vertex="1">
          <mxGeometry x="750" y="1200" width="80" height="40" as="geometry" />
        </mxCell>
        <mxCell id="AL4MJqAyBT561Gl4Sr2e-83" value="ARC" style="rounded=0;whiteSpace=wrap;html=1;glass=0;" parent="1" vertex="1">
          <mxGeometry x="40" y="840" width="80" height="40" as="geometry" />
        </mxCell>
        <mxCell id="AL4MJqAyBT561Gl4Sr2e-86" style="edgeStyle=orthogonalEdgeStyle;rounded=0;orthogonalLoop=1;jettySize=auto;html=1;exitX=1;exitY=0.5;exitDx=0;exitDy=0;" parent="1" source="AL4MJqAyBT561Gl4Sr2e-85" target="AL4MJqAyBT561Gl4Sr2e-81" edge="1">
          <mxGeometry relative="1" as="geometry" />
        </mxCell>
        <mxCell id="AL4MJqAyBT561Gl4Sr2e-89" style="edgeStyle=orthogonalEdgeStyle;rounded=0;orthogonalLoop=1;jettySize=auto;html=1;exitX=0.5;exitY=1;exitDx=0;exitDy=0;entryX=0.5;entryY=0;entryDx=0;entryDy=0;" parent="1" source="AL4MJqAyBT561Gl4Sr2e-85" target="AL4MJqAyBT561Gl4Sr2e-88" edge="1">
          <mxGeometry relative="1" as="geometry" />
        </mxCell>
        <mxCell id="AL4MJqAyBT561Gl4Sr2e-85" value="Weak Bloodshard" style="rounded=1;whiteSpace=wrap;html=1;glass=0;" parent="1" vertex="1">
          <mxGeometry x="480" y="1200" width="80" height="40" as="geometry" />
        </mxCell>
        <mxCell id="k7pa9WwZTihfMJWWEfgB-9" style="edgeStyle=orthogonalEdgeStyle;rounded=0;orthogonalLoop=1;jettySize=auto;html=1;entryX=0.5;entryY=0;entryDx=0;entryDy=0;" edge="1" parent="1" source="AL4MJqAyBT561Gl4Sr2e-88" target="k7pa9WwZTihfMJWWEfgB-8">
          <mxGeometry relative="1" as="geometry" />
        </mxCell>
        <mxCell id="AL4MJqAyBT561Gl4Sr2e-88" value="T4 Blood Altar" style="rounded=0;whiteSpace=wrap;html=1;glass=0;" parent="1" vertex="1">
          <mxGeometry x="480" y="1280" width="80" height="40" as="geometry" />
        </mxCell>
        <mxCell id="AL4MJqAyBT561Gl4Sr2e-90" value="Demon Dungeons" style="rounded=0;whiteSpace=wrap;html=1;glass=0;" parent="1" vertex="1">
          <mxGeometry x="480" y="1440" width="80" height="40" as="geometry" />
        </mxCell>
        <mxCell id="k7pa9WwZTihfMJWWEfgB-5" style="edgeStyle=orthogonalEdgeStyle;rounded=0;orthogonalLoop=1;jettySize=auto;html=1;exitX=0.5;exitY=1;exitDx=0;exitDy=0;entryX=0.5;entryY=0;entryDx=0;entryDy=0;" edge="1" parent="1" source="k7pa9WwZTihfMJWWEfgB-1" target="k7pa9WwZTihfMJWWEfgB-7">
          <mxGeometry relative="1" as="geometry">
            <mxPoint x="360" y="920" as="targetPoint" />
          </mxGeometry>
        </mxCell>
        <mxCell id="k7pa9WwZTihfMJWWEfgB-1" value="Simple Demon Dungeon" style="rounded=0;whiteSpace=wrap;html=1;" vertex="1" parent="1">
          <mxGeometry x="300" y="840" width="120" height="40" as="geometry" />
        </mxCell>
        <mxCell id="k7pa9WwZTihfMJWWEfgB-3" value="" style="endArrow=classic;html=1;exitX=0.5;exitY=1;exitDx=0;exitDy=0;entryX=0.5;entryY=0;entryDx=0;entryDy=0;" edge="1" parent="1" source="AL4MJqAyBT561Gl4Sr2e-70" target="k7pa9WwZTihfMJWWEfgB-1">
          <mxGeometry width="50" height="50" relative="1" as="geometry">
            <mxPoint x="400" y="800" as="sourcePoint" />
            <mxPoint x="450" y="750" as="targetPoint" />
          </mxGeometry>
        </mxCell>
        <mxCell id="k7pa9WwZTihfMJWWEfgB-14" style="edgeStyle=orthogonalEdgeStyle;rounded=0;orthogonalLoop=1;jettySize=auto;html=1;exitX=1;exitY=0.5;exitDx=0;exitDy=0;entryX=0;entryY=0.5;entryDx=0;entryDy=0;" edge="1" parent="1" source="k7pa9WwZTihfMJWWEfgB-7" target="k7pa9WwZTihfMJWWEfgB-10">
          <mxGeometry relative="1" as="geometry" />
        </mxCell>
        <mxCell id="k7pa9WwZTihfMJWWEfgB-7" value="Tau Fruit" style="rounded=1;whiteSpace=wrap;html=1;" vertex="1" parent="1">
          <mxGeometry x="320" y="920" width="80" height="40" as="geometry" />
        </mxCell>
        <mxCell id="k7pa9WwZTihfMJWWEfgB-8" value="Dusk Rituals" style="rounded=0;whiteSpace=wrap;html=1;" vertex="1" parent="1">
          <mxGeometry x="480" y="1360" width="80" height="40" as="geometry" />
        </mxCell>
        <mxCell id="k7pa9WwZTihfMJWWEfgB-13" style="edgeStyle=orthogonalEdgeStyle;rounded=0;orthogonalLoop=1;jettySize=auto;html=1;exitX=0.5;exitY=1;exitDx=0;exitDy=0;entryX=0.5;entryY=0;entryDx=0;entryDy=0;" edge="1" parent="1" source="k7pa9WwZTihfMJWWEfgB-10" target="AL4MJqAyBT561Gl4Sr2e-85">
          <mxGeometry relative="1" as="geometry">
            <mxPoint x="480" y="1120" as="targetPoint" />
            <Array as="points">
              <mxPoint x="520" y="1010" />
              <mxPoint x="520" y="1010" />
            </Array>
          </mxGeometry>
        </mxCell>
        <mxCell id="k7pa9WwZTihfMJWWEfgB-10" value="Strong Tau" style="rounded=1;whiteSpace=wrap;html=1;" vertex="1" parent="1">
          <mxGeometry x="480" y="920" width="80" height="40" as="geometry" />
        </mxCell>
        <mxCell id="k7pa9WwZTihfMJWWEfgB-15" value="Extended Anointments" style="rounded=1;whiteSpace=wrap;html=1;" vertex="1" parent="1">
          <mxGeometry x="40" y="1240" width="80" height="40" as="geometry" />
        </mxCell>
        <mxCell id="k7pa9WwZTihfMJWWEfgB-17" value="" style="endArrow=classic;html=1;exitX=0.5;exitY=1;exitDx=0;exitDy=0;entryX=0.5;entryY=0;entryDx=0;entryDy=0;" edge="1" parent="1" source="k7pa9WwZTihfMJWWEfgB-7" target="k7pa9WwZTihfMJWWEfgB-15">
          <mxGeometry width="50" height="50" relative="1" as="geometry">
            <mxPoint x="400" y="950" as="sourcePoint" />
            <mxPoint x="450" y="900" as="targetPoint" />
            <Array as="points">
              <mxPoint x="360" y="1000" />
              <mxPoint x="80" y="1000" />
              <mxPoint x="80" y="1120" />
            </Array>
          </mxGeometry>
        </mxCell>
        <mxCell id="k7pa9WwZTihfMJWWEfgB-18" value="Longer lasting ARC tools" style="rounded=1;whiteSpace=wrap;html=1;" vertex="1" parent="1">
          <mxGeometry x="220" y="1240" width="80" height="40" as="geometry" />
        </mxCell>
        <mxCell id="k7pa9WwZTihfMJWWEfgB-20" value="" style="endArrow=classic;html=1;entryX=0.5;entryY=0;entryDx=0;entryDy=0;" edge="1" parent="1" target="k7pa9WwZTihfMJWWEfgB-18">
          <mxGeometry width="50" height="50" relative="1" as="geometry">
            <mxPoint x="80" y="1160" as="sourcePoint" />
            <mxPoint x="450" y="1090" as="targetPoint" />
            <Array as="points">
              <mxPoint x="140" y="1160" />
              <mxPoint x="260" y="1160" />
            </Array>
          </mxGeometry>
        </mxCell>
        <mxCell id="k7pa9WwZTihfMJWWEfgB-21" value="Extended Potions" style="rounded=1;whiteSpace=wrap;html=1;" vertex="1" parent="1">
          <mxGeometry x="130" y="1240" width="80" height="40" as="geometry" />
        </mxCell>
        <mxCell id="k7pa9WwZTihfMJWWEfgB-22" value="" style="endArrow=classic;html=1;entryX=0.5;entryY=0;entryDx=0;entryDy=0;" edge="1" parent="1" target="k7pa9WwZTihfMJWWEfgB-21">
          <mxGeometry width="50" height="50" relative="1" as="geometry">
            <mxPoint x="80" y="1160" as="sourcePoint" />
            <mxPoint x="450" y="880" as="targetPoint" />
            <Array as="points">
              <mxPoint x="170" y="1160" />
            </Array>
          </mxGeometry>
        </mxCell>
        <mxCell id="k7pa9WwZTihfMJWWEfgB-23" value="Lvl 2 Anointments" style="rounded=1;whiteSpace=wrap;html=1;" vertex="1" parent="1">
          <mxGeometry x="40" y="1320" width="80" height="40" as="geometry" />
        </mxCell>
        <mxCell id="k7pa9WwZTihfMJWWEfgB-25" value="" style="endArrow=classic;html=1;entryX=0.5;entryY=0;entryDx=0;entryDy=0;" edge="1" parent="1" target="k7pa9WwZTihfMJWWEfgB-23">
          <mxGeometry width="50" height="50" relative="1" as="geometry">
            <mxPoint x="520" y="1040" as="sourcePoint" />
            <mxPoint x="450" y="1150" as="targetPoint" />
            <Array as="points">
              <mxPoint x="400" y="1040" />
              <mxPoint x="400" y="1300" />
              <mxPoint x="80" y="1300" />
            </Array>
          </mxGeometry>
        </mxCell>
        <mxCell id="k7pa9WwZTihfMJWWEfgB-26" value="Lvl 2 Potions" style="rounded=1;whiteSpace=wrap;html=1;" vertex="1" parent="1">
          <mxGeometry x="130" y="1320" width="80" height="40" as="geometry" />
        </mxCell>
        <mxCell id="k7pa9WwZTihfMJWWEfgB-27" value="" style="endArrow=classic;html=1;entryX=0.5;entryY=0;entryDx=0;entryDy=0;" edge="1" parent="1" target="k7pa9WwZTihfMJWWEfgB-26">
          <mxGeometry width="50" height="50" relative="1" as="geometry">
            <mxPoint x="360" y="1300" as="sourcePoint" />
            <mxPoint x="450" y="1150" as="targetPoint" />
            <Array as="points">
              <mxPoint x="170" y="1300" />
            </Array>
          </mxGeometry>
        </mxCell>
        <mxCell id="k7pa9WwZTihfMJWWEfgB-28" value="+Nether Tree Leaves" style="rounded=1;whiteSpace=wrap;html=1;" vertex="1" parent="1">
          <mxGeometry x="120" y="1040" width="80" height="40" as="geometry" />
        </mxCell>
        <mxCell id="k7pa9WwZTihfMJWWEfgB-29" value="" style="endArrow=classic;html=1;exitX=0;exitY=0.5;exitDx=0;exitDy=0;" edge="1" parent="1" source="k7pa9WwZTihfMJWWEfgB-28">
          <mxGeometry width="50" height="50" relative="1" as="geometry">
            <mxPoint x="400" y="1090" as="sourcePoint" />
            <mxPoint x="80" y="1240" as="targetPoint" />
            <Array as="points">
              <mxPoint x="80" y="1060" />
            </Array>
          </mxGeometry>
        </mxCell>
        <mxCell id="k7pa9WwZTihfMJWWEfgB-30" value="" style="endArrow=classic;html=1;exitX=0.5;exitY=1;exitDx=0;exitDy=0;entryX=0.5;entryY=0;entryDx=0;entryDy=0;" edge="1" parent="1" source="k7pa9WwZTihfMJWWEfgB-8" target="AL4MJqAyBT561Gl4Sr2e-90">
          <mxGeometry width="50" height="50" relative="1" as="geometry">
            <mxPoint x="400" y="1390" as="sourcePoint" />
            <mxPoint x="450" y="1340" as="targetPoint" />
          </mxGeometry>
        </mxCell>
        <mxCell id="k7pa9WwZTihfMJWWEfgB-50" style="edgeStyle=orthogonalEdgeStyle;rounded=0;orthogonalLoop=1;jettySize=auto;html=1;exitX=0.5;exitY=1;exitDx=0;exitDy=0;entryX=0.5;entryY=0;entryDx=0;entryDy=0;" edge="1" parent="1" source="k7pa9WwZTihfMJWWEfgB-31" target="k7pa9WwZTihfMJWWEfgB-49">
          <mxGeometry relative="1" as="geometry" />
        </mxCell>
        <mxCell id="k7pa9WwZTihfMJWWEfgB-31" value="Hellforged Ingot" style="rounded=1;whiteSpace=wrap;html=1;" vertex="1" parent="1">
          <mxGeometry x="740" y="1580" width="80" height="40" as="geometry" />
        </mxCell>
        <mxCell id="k7pa9WwZTihfMJWWEfgB-32" value="Demonite Ore (Mines/Ore hold)" style="rounded=1;whiteSpace=wrap;html=1;" vertex="1" parent="1">
          <mxGeometry x="720" y="1520" width="120" height="40" as="geometry" />
        </mxCell>
        <mxCell id="k7pa9WwZTihfMJWWEfgB-34" value="" style="endArrow=classic;html=1;exitX=0.5;exitY=1;exitDx=0;exitDy=0;entryX=0.5;entryY=0;entryDx=0;entryDy=0;" edge="1" parent="1" source="k7pa9WwZTihfMJWWEfgB-32" target="k7pa9WwZTihfMJWWEfgB-31">
          <mxGeometry width="50" height="50" relative="1" as="geometry">
            <mxPoint x="660" y="1450" as="sourcePoint" />
            <mxPoint x="710" y="1400" as="targetPoint" />
          </mxGeometry>
        </mxCell>
        <mxCell id="k7pa9WwZTihfMJWWEfgB-35" value="Random Chest Loot" style="rounded=1;whiteSpace=wrap;html=1;" vertex="1" parent="1">
          <mxGeometry x="280" y="1520" width="80" height="40" as="geometry" />
        </mxCell>
        <mxCell id="k7pa9WwZTihfMJWWEfgB-36" value="" style="endArrow=classic;html=1;entryX=0.5;entryY=0;entryDx=0;entryDy=0;" edge="1" parent="1" target="k7pa9WwZTihfMJWWEfgB-35">
          <mxGeometry width="50" height="50" relative="1" as="geometry">
            <mxPoint x="520" y="1480" as="sourcePoint" />
            <mxPoint x="450" y="1400" as="targetPoint" />
            <Array as="points">
              <mxPoint x="520" y="1500" />
              <mxPoint x="320" y="1500" />
            </Array>
          </mxGeometry>
        </mxCell>
        <mxCell id="k7pa9WwZTihfMJWWEfgB-39" style="edgeStyle=orthogonalEdgeStyle;rounded=0;orthogonalLoop=1;jettySize=auto;html=1;exitX=1;exitY=0.5;exitDx=0;exitDy=0;entryX=0;entryY=0.5;entryDx=0;entryDy=0;" edge="1" parent="1" source="k7pa9WwZTihfMJWWEfgB-38" target="k7pa9WwZTihfMJWWEfgB-1">
          <mxGeometry relative="1" as="geometry" />
        </mxCell>
        <mxCell id="k7pa9WwZTihfMJWWEfgB-38" value="Simple Key (Tartaric Forge + vanilla items" style="rounded=1;whiteSpace=wrap;html=1;" vertex="1" parent="1">
          <mxGeometry x="160" y="840" width="120" height="40" as="geometry" />
        </mxCell>
        <mxCell id="k7pa9WwZTihfMJWWEfgB-40" value="" style="endArrow=classic;html=1;exitX=0.5;exitY=1;exitDx=0;exitDy=0;entryX=0.5;entryY=0;entryDx=0;entryDy=0;" edge="1" parent="1" source="AL4MJqAyBT561Gl4Sr2e-90" target="k7pa9WwZTihfMJWWEfgB-32">
          <mxGeometry width="50" height="50" relative="1" as="geometry">
            <mxPoint x="400" y="1410" as="sourcePoint" />
            <mxPoint x="450" y="1360" as="targetPoint" />
            <Array as="points">
              <mxPoint x="520" y="1500" />
              <mxPoint x="780" y="1500" />
            </Array>
          </mxGeometry>
        </mxCell>
        <mxCell id="k7pa9WwZTihfMJWWEfgB-41" value="Farm Room?" style="rounded=1;whiteSpace=wrap;html=1;" vertex="1" parent="1">
          <mxGeometry x="80" y="1520" width="80" height="40" as="geometry" />
        </mxCell>
        <mxCell id="k7pa9WwZTihfMJWWEfgB-42" value="" style="endArrow=classic;html=1;entryX=0.5;entryY=0;entryDx=0;entryDy=0;" edge="1" parent="1" target="k7pa9WwZTihfMJWWEfgB-41">
          <mxGeometry width="50" height="50" relative="1" as="geometry">
            <mxPoint x="520" y="1480" as="sourcePoint" />
            <mxPoint x="450" y="1360" as="targetPoint" />
            <Array as="points">
              <mxPoint x="520" y="1500" />
              <mxPoint x="120" y="1500" />
            </Array>
          </mxGeometry>
        </mxCell>
        <mxCell id="k7pa9WwZTihfMJWWEfgB-43" value="Seeds of Doubt (special growth?)" style="rounded=1;whiteSpace=wrap;html=1;" vertex="1" parent="1">
          <mxGeometry x="90" y="1640" width="120" height="40" as="geometry" />
        </mxCell>
        <mxCell id="k7pa9WwZTihfMJWWEfgB-44" value="" style="endArrow=classic;html=1;exitX=0.5;exitY=1;exitDx=0;exitDy=0;entryX=0.25;entryY=0;entryDx=0;entryDy=0;" edge="1" parent="1" source="k7pa9WwZTihfMJWWEfgB-41" target="k7pa9WwZTihfMJWWEfgB-43">
          <mxGeometry width="50" height="50" relative="1" as="geometry">
            <mxPoint x="400" y="1410" as="sourcePoint" />
            <mxPoint x="450" y="1360" as="targetPoint" />
            <Array as="points">
              <mxPoint x="120" y="1580" />
            </Array>
          </mxGeometry>
        </mxCell>
        <mxCell id="k7pa9WwZTihfMJWWEfgB-47" value="" style="endArrow=classic;html=1;exitX=0.5;exitY=1;exitDx=0;exitDy=0;entryX=0.75;entryY=0;entryDx=0;entryDy=0;" edge="1" parent="1" source="k7pa9WwZTihfMJWWEfgB-35" target="k7pa9WwZTihfMJWWEfgB-43">
          <mxGeometry width="50" height="50" relative="1" as="geometry">
            <mxPoint x="400" y="1410" as="sourcePoint" />
            <mxPoint x="250" y="1630" as="targetPoint" />
            <Array as="points">
              <mxPoint x="320" y="1580" />
              <mxPoint x="180" y="1580" />
            </Array>
          </mxGeometry>
        </mxCell>
        <mxCell id="k7pa9WwZTihfMJWWEfgB-48" value="Either" style="text;html=1;strokeColor=none;fillColor=none;align=center;verticalAlign=middle;whiteSpace=wrap;rounded=0;" vertex="1" parent="1">
          <mxGeometry x="130" y="1600" width="40" height="20" as="geometry" />
        </mxCell>
        <mxCell id="k7pa9WwZTihfMJWWEfgB-52" style="edgeStyle=orthogonalEdgeStyle;rounded=0;orthogonalLoop=1;jettySize=auto;html=1;exitX=0.5;exitY=1;exitDx=0;exitDy=0;entryX=0.5;entryY=0;entryDx=0;entryDy=0;" edge="1" parent="1" source="k7pa9WwZTihfMJWWEfgB-49" target="k7pa9WwZTihfMJWWEfgB-51">
          <mxGeometry relative="1" as="geometry" />
        </mxCell>
        <mxCell id="k7pa9WwZTihfMJWWEfgB-49" value="Hellforged Block" style="rounded=1;whiteSpace=wrap;html=1;" vertex="1" parent="1">
          <mxGeometry x="740" y="1640" width="80" height="40" as="geometry" />
        </mxCell>
        <mxCell id="k7pa9WwZTihfMJWWEfgB-51" value="T5 Blood Altar" style="rounded=1;whiteSpace=wrap;html=1;" vertex="1" parent="1">
          <mxGeometry x="740" y="1720" width="80" height="40" as="geometry" />
        </mxCell>
        <mxCell id="k7pa9WwZTihfMJWWEfgB-53" value="Types of Living Armour tokens" style="rounded=1;whiteSpace=wrap;html=1;" vertex="1" parent="1">
          <mxGeometry x="280" y="1640" width="80" height="40" as="geometry" />
        </mxCell>
        <mxCell id="k7pa9WwZTihfMJWWEfgB-54" value="" style="endArrow=classic;html=1;" edge="1" parent="1">
          <mxGeometry width="50" height="50" relative="1" as="geometry">
            <mxPoint x="320" y="1560" as="sourcePoint" />
            <mxPoint x="320" y="1640" as="targetPoint" />
          </mxGeometry>
        </mxCell>
        <mxCell id="k7pa9WwZTihfMJWWEfgB-55" value="Living Armour Downgrade Conversion" style="rounded=0;whiteSpace=wrap;html=1;" vertex="1" parent="1">
          <mxGeometry x="280" y="1330" width="120" height="60" as="geometry" />
        </mxCell>
        <mxCell id="k7pa9WwZTihfMJWWEfgB-56" value="" style="endArrow=classic;html=1;entryX=0.5;entryY=0;entryDx=0;entryDy=0;" edge="1" parent="1" target="k7pa9WwZTihfMJWWEfgB-55">
          <mxGeometry width="50" height="50" relative="1" as="geometry">
            <mxPoint x="390" y="1300" as="sourcePoint" />
            <mxPoint x="450" y="1160" as="targetPoint" />
            <Array as="points">
              <mxPoint x="340" y="1300" />
            </Array>
          </mxGeometry>
        </mxCell>
        <mxCell id="k7pa9WwZTihfMJWWEfgB-58" value="Training Bracelet?" style="rounded=1;whiteSpace=wrap;html=1;" vertex="1" parent="1">
          <mxGeometry x="240" y="1040" width="80" height="40" as="geometry" />
        </mxCell>
        <mxCell id="k7pa9WwZTihfMJWWEfgB-59" value="" style="endArrow=classic;html=1;entryX=0.5;entryY=0;entryDx=0;entryDy=0;" edge="1" parent="1" target="k7pa9WwZTihfMJWWEfgB-58">
          <mxGeometry width="50" height="50" relative="1" as="geometry">
            <mxPoint x="350" y="1000" as="sourcePoint" />
            <mxPoint x="450" y="1050" as="targetPoint" />
            <Array as="points">
              <mxPoint x="280" y="1000" />
            </Array>
          </mxGeometry>
        </mxCell>
        <mxCell id="k7pa9WwZTihfMJWWEfgB-60" value="Untrainable Armour Upgrades" style="rounded=1;whiteSpace=wrap;html=1;" vertex="1" parent="1">
          <mxGeometry x="280" y="1720" width="80" height="40" as="geometry" />
        </mxCell>
        <mxCell id="k7pa9WwZTihfMJWWEfgB-61" value="" style="endArrow=classic;html=1;exitX=0.5;exitY=1;exitDx=0;exitDy=0;entryX=0.5;entryY=0;entryDx=0;entryDy=0;" edge="1" parent="1" source="k7pa9WwZTihfMJWWEfgB-53" target="k7pa9WwZTihfMJWWEfgB-60">
          <mxGeometry width="50" height="50" relative="1" as="geometry">
            <mxPoint x="400" y="1600" as="sourcePoint" />
            <mxPoint x="450" y="1550" as="targetPoint" />
          </mxGeometry>
        </mxCell>
        <mxCell id="k7pa9WwZTihfMJWWEfgB-64" value="" style="endArrow=classic;html=1;entryX=0.25;entryY=0;entryDx=0;entryDy=0;" edge="1" parent="1" target="k7pa9WwZTihfMJWWEfgB-73">
          <mxGeometry width="50" height="50" relative="1" as="geometry">
            <mxPoint x="150" y="1680" as="sourcePoint" />
            <mxPoint x="60" y="1840" as="targetPoint" />
            <Array as="points">
              <mxPoint x="150" y="1720" />
              <mxPoint x="60" y="1720" />
              <mxPoint x="60" y="1800" />
            </Array>
          </mxGeometry>
        </mxCell>
        <mxCell id="k7pa9WwZTihfMJWWEfgB-66" value="T5 Orb" style="rounded=1;whiteSpace=wrap;html=1;" vertex="1" parent="1">
          <mxGeometry x="740" y="1800" width="80" height="40" as="geometry" />
        </mxCell>
        <mxCell id="k7pa9WwZTihfMJWWEfgB-67" value="" style="endArrow=classic;html=1;exitX=0.5;exitY=1;exitDx=0;exitDy=0;entryX=0.5;entryY=0;entryDx=0;entryDy=0;" edge="1" parent="1" source="k7pa9WwZTihfMJWWEfgB-51" target="k7pa9WwZTihfMJWWEfgB-66">
          <mxGeometry width="50" height="50" relative="1" as="geometry">
            <mxPoint x="660" y="1690" as="sourcePoint" />
            <mxPoint x="710" y="1640" as="targetPoint" />
          </mxGeometry>
        </mxCell>
        <mxCell id="k7pa9WwZTihfMJWWEfgB-68" value="" style="endArrow=classic;html=1;exitX=0;exitY=0.5;exitDx=0;exitDy=0;entryX=0.75;entryY=0;entryDx=0;entryDy=0;" edge="1" parent="1" source="k7pa9WwZTihfMJWWEfgB-66" target="k7pa9WwZTihfMJWWEfgB-73">
          <mxGeometry width="50" height="50" relative="1" as="geometry">
            <mxPoint x="400" y="1690" as="sourcePoint" />
            <mxPoint x="100" y="1840" as="targetPoint" />
            <Array as="points">
              <mxPoint x="100" y="1820" />
            </Array>
          </mxGeometry>
        </mxCell>
        <mxCell id="k7pa9WwZTihfMJWWEfgB-69" value="" style="endArrow=classic;html=1;entryX=0.5;entryY=0;entryDx=0;entryDy=0;exitX=0.5;exitY=1;exitDx=0;exitDy=0;" edge="1" parent="1" source="k7pa9WwZTihfMJWWEfgB-70" target="k7pa9WwZTihfMJWWEfgB-73">
          <mxGeometry width="50" height="50" relative="1" as="geometry">
            <mxPoint x="440" y="1790" as="sourcePoint" />
            <mxPoint x="80" y="1840" as="targetPoint" />
            <Array as="points">
              <mxPoint x="670" y="1800" />
              <mxPoint x="80" y="1800" />
            </Array>
          </mxGeometry>
        </mxCell>
        <mxCell id="k7pa9WwZTihfMJWWEfgB-70" value="Hellforged Sand" style="rounded=1;whiteSpace=wrap;html=1;" vertex="1" parent="1">
          <mxGeometry x="630" y="1580" width="80" height="40" as="geometry" />
        </mxCell>
        <mxCell id="k7pa9WwZTihfMJWWEfgB-71" value="" style="endArrow=classic;html=1;exitX=0;exitY=0.5;exitDx=0;exitDy=0;entryX=0.5;entryY=0;entryDx=0;entryDy=0;" edge="1" parent="1" source="k7pa9WwZTihfMJWWEfgB-32" target="k7pa9WwZTihfMJWWEfgB-70">
          <mxGeometry width="50" height="50" relative="1" as="geometry">
            <mxPoint x="400" y="1680" as="sourcePoint" />
            <mxPoint x="450" y="1630" as="targetPoint" />
            <Array as="points">
              <mxPoint x="670" y="1540" />
            </Array>
          </mxGeometry>
        </mxCell>
        <mxCell id="k7pa9WwZTihfMJWWEfgB-72" value="Lvl 3 Anointments" style="rounded=1;whiteSpace=wrap;html=1;" vertex="1" parent="1">
          <mxGeometry x="40" y="1920" width="80" height="40" as="geometry" />
        </mxCell>
        <mxCell id="k7pa9WwZTihfMJWWEfgB-73" value="Some alchemy item" style="rounded=0;whiteSpace=wrap;html=1;" vertex="1" parent="1">
          <mxGeometry x="40" y="1840" width="80" height="40" as="geometry" />
        </mxCell>
        <mxCell id="k7pa9WwZTihfMJWWEfgB-74" value="" style="endArrow=classic;html=1;exitX=0.5;exitY=1;exitDx=0;exitDy=0;" edge="1" parent="1" source="k7pa9WwZTihfMJWWEfgB-73">
          <mxGeometry width="50" height="50" relative="1" as="geometry">
            <mxPoint x="400" y="1680" as="sourcePoint" />
            <mxPoint x="80" y="1920" as="targetPoint" />
          </mxGeometry>
        </mxCell>
        <mxCell id="k7pa9WwZTihfMJWWEfgB-75" value="Lvl 3 Potions" style="rounded=1;whiteSpace=wrap;html=1;" vertex="1" parent="1">
          <mxGeometry x="160" y="1920" width="80" height="40" as="geometry" />
        </mxCell>
        <mxCell id="k7pa9WwZTihfMJWWEfgB-76" value="" style="endArrow=classic;html=1;exitX=0.5;exitY=1;exitDx=0;exitDy=0;entryX=0.5;entryY=0;entryDx=0;entryDy=0;" edge="1" parent="1" source="k7pa9WwZTihfMJWWEfgB-73" target="k7pa9WwZTihfMJWWEfgB-75">
          <mxGeometry width="50" height="50" relative="1" as="geometry">
            <mxPoint x="400" y="1680" as="sourcePoint" />
            <mxPoint x="450" y="1630" as="targetPoint" />
            <Array as="points">
              <mxPoint x="80" y="1900" />
              <mxPoint x="200" y="1900" />
            </Array>
          </mxGeometry>
        </mxCell>
      </root>
    </mxGraphModel>
  </diagram>
</mxfile>
